<?xml version="1.0" encoding="UTF-8"?>
<!DOCTYPE svg PUBLIC "-//W3C//DTD SVG 1.1//EN" "http://www.w3.org/Graphics/SVG/1.1/DTD/svg11.dtd">
<svg xmlns="http://www.w3.org/2000/svg" version="1.1" width="1024px" height="1024px" style="shape-rendering:geometricPrecision; text-rendering:geometricPrecision; image-rendering:optimizeQuality; fill-rule:evenodd; clip-rule:evenodd" xmlns:xlink="http://www.w3.org/1999/xlink">
<g><path style="opacity:1" fill="#030303" d="M 167.5,94.5 C 393.072,94.4697 615.405,94.6363 834.5,95C 846.587,99.0851 853.587,107.418 855.5,120C 854.949,225.773 854.283,333.773 853.5,444C 853.541,536.409 853.874,629.742 854.5,724C 855.393,738.208 849.06,747.541 835.5,752C 632.597,753.445 430.43,753.945 229,753.5C 208.833,753.333 188.667,753.167 168.5,753C 156.848,750.184 149.182,743.017 145.5,731.5C 146.094,528.744 146.594,322.744 147,113.5C 150.256,103.069 157.089,96.7361 167.5,94.5 Z"/></g>
<g><path style="opacity:1" fill="#fcfdfd" d="M 393.5,137.5 C 393.5,210.167 393.5,282.833 393.5,355.5C 325.833,355.5 258.167,355.5 190.5,355.5C 189.501,299.669 189.168,243.669 189.5,187.5C 189.5,170.833 189.5,154.167 189.5,137.5C 257.5,137.5 325.5,137.5 393.5,137.5 Z"/></g>
<g><path style="opacity:1" fill="#fdfdfd" d="M 436.5,139.5 C 436.5,139.167 436.5,138.833 436.5,138.5C 450.167,138.5 463.833,138.5 477.5,138.5C 477.5,240.833 477.5,343.167 477.5,445.5C 381.833,445.5 286.167,445.5 190.5,445.5C 190.737,444.209 190.404,443.209 189.5,442.5C 189.5,428.167 189.5,413.833 189.5,399.5C 261.833,399.5 334.167,399.5 406.5,399.5C 416.833,399.5 427.167,399.5 437.5,399.5C 437.833,312.665 437.499,225.998 436.5,139.5 Z"/></g>
<g><path style="opacity:1" fill="#949393" d="M 812.5,398.5 C 812.5,398.833 812.5,399.167 812.5,399.5C 729.167,399.5 645.833,399.5 562.5,399.5C 562.5,312.5 562.5,225.5 562.5,138.5C 550.167,138.5 537.833,138.5 525.5,138.5C 524.667,188.665 524.167,238.998 524,289.5C 523.667,295.833 523.333,302.167 523,308.5C 522.427,310.641 521.594,312.641 520.5,314.5C 519.67,305.342 519.17,296.009 519,286.5C 518.5,236.834 518.333,187.168 518.5,137.5C 533.5,137.5 548.5,137.5 563.5,137.5C 563.5,224.5 563.5,311.5 563.5,398.5C 646.5,398.5 729.5,398.5 812.5,398.5 Z"/></g>
<g><path style="opacity:1" fill="#fdfdfd" d="M 525.5,138.5 C 537.833,138.5 550.167,138.5 562.5,138.5C 562.5,225.5 562.5,312.5 562.5,399.5C 645.833,399.5 729.167,399.5 812.5,399.5C 812.5,414.833 812.5,430.167 812.5,445.5C 729.5,445.5 646.5,445.5 563.5,445.5C 562.501,533.332 562.167,621.332 562.5,709.5C 549.167,709.5 535.833,709.5 522.5,709.5C 522.832,667.33 522.499,625.33 521.5,583.5C 521.5,570.833 521.5,558.167 521.5,545.5C 521.5,487.167 521.5,428.833 521.5,370.5C 523.384,370.712 524.717,371.712 525.5,373.5C 526.212,354.994 526.878,336.494 527.5,318C 525.9,314.057 525.234,309.891 525.5,305.5C 525.5,249.833 525.5,194.167 525.5,138.5 Z"/></g>
<g><path style="opacity:1" fill="#fdfdfd" d="M 718.5,137.5 C 749.833,137.5 781.167,137.5 812.5,137.5C 812.5,174.5 812.5,211.5 812.5,248.5C 812.5,284.167 812.5,319.833 812.5,355.5C 743.833,355.5 675.167,355.5 606.5,355.5C 606.5,283.167 606.5,210.833 606.5,138.5C 644.004,138.832 681.337,138.498 718.5,137.5 Z"/></g>
<g><path style="opacity:1" fill="#575758" d="M 393.5,137.5 C 325.5,137.5 257.5,137.5 189.5,137.5C 189.5,154.167 189.5,170.833 189.5,187.5C 188.503,170.675 188.17,153.675 188.5,136.5C 257.002,136.167 325.335,136.501 393.5,137.5 Z"/></g>
<g><path style="opacity:1" fill="#9a9a9a" d="M 718.5,137.5 C 681.337,138.498 644.004,138.832 606.5,138.5C 606.5,210.833 606.5,283.167 606.5,355.5C 605.501,283.002 605.167,210.335 605.5,137.5C 643.167,137.5 680.833,137.5 718.5,137.5 Z"/></g>
<g><path style="opacity:1" fill="#020202" d="M 233.5,181.5 C 272.167,181.5 310.833,181.5 349.5,181.5C 349.5,222.833 349.5,264.167 349.5,305.5C 311.167,305.5 272.833,305.5 234.5,305.5C 234.831,283.327 234.497,261.327 233.5,239.5C 233.5,220.167 233.5,200.833 233.5,181.5 Z"/></g>
<g><path style="opacity:1" fill="#b7b6b6" d="M 436.5,139.5 C 437.499,225.998 437.833,312.665 437.5,399.5C 427.167,399.5 416.833,399.5 406.5,399.5C 416.319,398.506 426.319,398.173 436.5,398.5C 436.5,312.167 436.5,225.833 436.5,139.5 Z"/></g>
<g><path style="opacity:1" fill="#a3a3a4" d="M 436.5,138.5 C 450.323,137.504 464.323,137.171 478.5,137.5C 478.833,240.335 478.499,343.001 477.5,445.5C 477.5,343.167 477.5,240.833 477.5,138.5C 463.833,138.5 450.167,138.5 436.5,138.5 Z"/></g>
<g><path style="opacity:1" fill="#535353" d="M 649.5,182.5 C 689.167,182.5 728.833,182.5 768.5,182.5C 768.5,223.5 768.5,264.5 768.5,305.5C 728.833,305.5 689.167,305.5 649.5,305.5C 649.5,264.5 649.5,223.5 649.5,182.5 Z"/></g>
<g><path style="opacity:1" fill="#020202" d="M 650.5,183.5 C 689.5,183.5 728.5,183.5 767.5,183.5C 767.5,223.833 767.5,264.167 767.5,304.5C 728.5,304.5 689.5,304.5 650.5,304.5C 650.5,264.167 650.5,223.833 650.5,183.5 Z"/></g>
<g><path style="opacity:1" fill="#676667" d="M 233.5,181.5 C 272.33,180.501 311.33,180.168 350.5,180.5C 350.5,222.167 350.5,263.833 350.5,305.5C 350.167,305.5 349.833,305.5 349.5,305.5C 349.5,264.167 349.5,222.833 349.5,181.5C 310.833,181.5 272.167,181.5 233.5,181.5 Z"/></g>
<g><path style="opacity:1" fill="#929292" d="M 233.5,239.5 C 234.497,261.327 234.831,283.327 234.5,305.5C 272.833,305.5 311.167,305.5 349.5,305.5C 349.833,305.5 350.167,305.5 350.5,305.5C 311.67,306.499 272.67,306.832 233.5,306.5C 233.5,284.167 233.5,261.833 233.5,239.5 Z"/></g>
<g><path style="opacity:1" fill="#a5a6a6" d="M 525.5,138.5 C 525.5,194.167 525.5,249.833 525.5,305.5C 524.172,313.902 524.172,322.402 525.5,331C 521.853,343.84 520.52,357.007 521.5,370.5C 521.5,428.833 521.5,487.167 521.5,545.5C 520.501,468.668 520.167,391.668 520.5,314.5C 521.594,312.641 522.427,310.641 523,308.5C 523.333,302.167 523.667,295.833 524,289.5C 524.167,238.998 524.667,188.665 525.5,138.5 Z"/></g>
<g><path style="opacity:1" fill="#e4e5e6" d="M 525.5,305.5 C 525.234,309.891 525.9,314.057 527.5,318C 526.878,336.494 526.212,354.994 525.5,373.5C 524.717,371.712 523.384,370.712 521.5,370.5C 520.52,357.007 521.853,343.84 525.5,331C 524.172,322.402 524.172,313.902 525.5,305.5 Z"/></g>
<g><path style="opacity:1" fill="#7d7d7d" d="M 393.5,137.5 C 394.499,210.331 394.833,283.331 394.5,356.5C 326.331,356.833 258.331,356.499 190.5,355.5C 258.167,355.5 325.833,355.5 393.5,355.5C 393.5,282.833 393.5,210.167 393.5,137.5 Z"/></g>
<g><path style="opacity:1" fill="#888888" d="M 812.5,248.5 C 813.498,284.329 813.832,320.329 813.5,356.5C 744.331,356.833 675.331,356.499 606.5,355.5C 675.167,355.5 743.833,355.5 812.5,355.5C 812.5,319.833 812.5,284.167 812.5,248.5 Z"/></g>
<g><path style="opacity:1" fill="#959695" d="M 189.5,442.5 C 190.404,443.209 190.737,444.209 190.5,445.5C 286.167,445.5 381.833,445.5 477.5,445.5C 381.668,446.499 285.668,446.833 189.5,446.5C 189.5,445.167 189.5,443.833 189.5,442.5 Z"/></g>
<g><path style="opacity:1" fill="#6e6e6e" d="M 812.5,398.5 C 813.496,414.325 813.83,430.325 813.5,446.5C 730.167,446.5 646.833,446.5 563.5,446.5C 563.5,446.167 563.5,445.833 563.5,445.5C 646.5,445.5 729.5,445.5 812.5,445.5C 812.5,430.167 812.5,414.833 812.5,399.5C 812.5,399.167 812.5,398.833 812.5,398.5 Z"/></g>
<g><path style="opacity:1" fill="#fdfdfd" d="M 189.5,490.5 C 257.5,490.5 325.5,490.5 393.5,490.5C 393.5,563.5 393.5,636.5 393.5,709.5C 325.833,709.5 258.167,709.5 190.5,709.5C 190.832,653.331 190.499,597.331 189.5,541.5C 189.5,524.5 189.5,507.5 189.5,490.5 Z"/></g>
<g><path style="opacity:1" fill="#fdfdfd" d="M 477.5,490.5 C 477.5,563.5 477.5,636.5 477.5,709.5C 464.167,709.5 450.833,709.5 437.5,709.5C 437.831,678.995 437.498,648.662 436.5,618.5C 436.5,603.167 436.5,587.833 436.5,572.5C 437.498,545.338 437.831,518.005 437.5,490.5C 450.833,490.5 464.167,490.5 477.5,490.5 Z"/></g>
<g><path style="opacity:1" fill="#c1c1c1" d="M 477.5,489.5 C 477.5,489.833 477.5,490.167 477.5,490.5C 464.167,490.5 450.833,490.5 437.5,490.5C 437.831,518.005 437.498,545.338 436.5,572.5C 436.5,544.833 436.5,517.167 436.5,489.5C 450.167,489.5 463.833,489.5 477.5,489.5 Z"/></g>
<g><path style="opacity:1" fill="#8a8a8a" d="M 650.5,489.5 C 650.83,506.009 650.496,522.342 649.5,538.5C 649.5,522.5 649.5,506.5 649.5,490.5C 635.5,490.5 621.5,490.5 607.5,490.5C 607.5,506.5 607.5,522.5 607.5,538.5C 607.167,538.5 606.833,538.5 606.5,538.5C 606.5,522.167 606.5,505.833 606.5,489.5C 621.167,489.5 635.833,489.5 650.5,489.5 Z"/></g>
<g><path style="opacity:1" fill="#fdfdfd" d="M 649.5,538.5 C 635.5,538.5 621.5,538.5 607.5,538.5C 607.5,522.5 607.5,506.5 607.5,490.5C 621.5,490.5 635.5,490.5 649.5,490.5C 649.5,506.5 649.5,522.5 649.5,538.5 Z"/></g>
<g><path style="opacity:1" fill="#040304" d="M 349.5,538.5 C 349.5,580.833 349.5,623.167 349.5,665.5C 310.833,665.5 272.167,665.5 233.5,665.5C 233.5,623.167 233.5,580.833 233.5,538.5C 272.167,538.5 310.833,538.5 349.5,538.5 Z"/></g>
<g><path style="opacity:1" fill="#333233" d="M 813.5,572.5 C 813.167,572.5 812.833,572.5 812.5,572.5C 801.422,583.077 790.422,593.91 779.5,605C 776.29,607.717 772.956,610.217 769.5,612.5C 769.5,588.5 769.5,564.5 769.5,540.5C 729.5,540.5 689.5,540.5 649.5,540.5C 649.168,581.337 649.501,622.003 650.5,662.5C 671.833,663.167 693.167,663.833 714.5,664.5C 699.167,679.5 683.833,694.5 668.5,709.5C 668.5,709.833 668.5,710.167 668.5,710.5C 647.5,710.5 626.5,710.5 605.5,710.5C 605.417,653.164 605.751,595.83 606.5,538.5C 606.833,538.5 607.167,538.5 607.5,538.5C 621.5,538.5 635.5,538.5 649.5,538.5C 650.496,522.342 650.83,506.009 650.5,489.5C 704.664,488.501 758.997,488.168 813.5,488.5C 813.5,516.5 813.5,544.5 813.5,572.5 Z"/></g>
<g><path style="opacity:1" fill="#36fbd7" d="M 769.5,612.5 C 772.956,610.217 776.29,607.717 779.5,605C 790.422,593.91 801.422,583.077 812.5,572.5C 812.5,618.167 812.5,663.833 812.5,709.5C 764.5,709.5 716.5,709.5 668.5,709.5C 683.833,694.5 699.167,679.5 714.5,664.5C 715.043,664.44 715.376,664.107 715.5,663.5C 693.844,662.5 672.177,662.167 650.5,662.5C 650.5,622.167 650.5,581.833 650.5,541.5C 689.833,541.5 729.167,541.5 768.5,541.5C 768.167,565.908 768.501,589.575 769.5,612.5 Z"/></g>
<g><path style="opacity:1" fill="#369887" d="M 769.5,612.5 C 768.501,589.575 768.167,565.908 768.5,541.5C 729.167,541.5 689.833,541.5 650.5,541.5C 650.5,581.833 650.5,622.167 650.5,662.5C 649.501,622.003 649.168,581.337 649.5,540.5C 689.5,540.5 729.5,540.5 769.5,540.5C 769.5,564.5 769.5,588.5 769.5,612.5 Z"/></g>
<g><path style="opacity:1" fill="#a3a4a4" d="M 563.5,445.5 C 563.5,445.833 563.5,446.167 563.5,446.5C 563.5,534.5 563.5,622.5 563.5,710.5C 549.5,710.5 535.5,710.5 521.5,710.5C 521.5,668.167 521.5,625.833 521.5,583.5C 522.499,625.33 522.832,667.33 522.5,709.5C 535.833,709.5 549.167,709.5 562.5,709.5C 562.167,621.332 562.501,533.332 563.5,445.5 Z"/></g>
<g><path style="opacity:1" fill="#368678" d="M 650.5,662.5 C 672.177,662.167 693.844,662.5 715.5,663.5C 715.376,664.107 715.043,664.44 714.5,664.5C 693.167,663.833 671.833,663.167 650.5,662.5 Z"/></g>
<g><path style="opacity:1" fill="#a3a3a3" d="M 349.5,538.5 C 350.499,580.997 350.832,623.663 350.5,666.5C 311.33,666.832 272.33,666.499 233.5,665.5C 272.167,665.5 310.833,665.5 349.5,665.5C 349.5,623.167 349.5,580.833 349.5,538.5 Z"/></g>
<g><path style="opacity:1" fill="#a3a3a3" d="M 477.5,489.5 C 478.499,562.998 478.833,636.665 478.5,710.5C 464.5,710.5 450.5,710.5 436.5,710.5C 436.5,679.833 436.5,649.167 436.5,618.5C 437.498,648.662 437.831,678.995 437.5,709.5C 450.833,709.5 464.167,709.5 477.5,709.5C 477.5,636.5 477.5,563.5 477.5,490.5C 477.5,490.167 477.5,489.833 477.5,489.5 Z"/></g>
<g><path style="opacity:1" fill="#acacac" d="M 189.5,490.5 C 257.665,489.501 325.998,489.167 394.5,489.5C 394.5,563.167 394.5,636.833 394.5,710.5C 326.167,710.5 257.833,710.5 189.5,710.5C 189.5,654.167 189.5,597.833 189.5,541.5C 190.499,597.331 190.832,653.331 190.5,709.5C 258.167,709.5 325.833,709.5 393.5,709.5C 393.5,636.5 393.5,563.5 393.5,490.5C 325.5,490.5 257.5,490.5 189.5,490.5 Z"/></g>
<g><path style="opacity:1" fill="#228a76" d="M 812.5,572.5 C 812.833,572.5 813.167,572.5 813.5,572.5C 813.5,618.5 813.5,664.5 813.5,710.5C 765.167,710.5 716.833,710.5 668.5,710.5C 668.5,710.167 668.5,709.833 668.5,709.5C 716.5,709.5 764.5,709.5 812.5,709.5C 812.5,663.833 812.5,618.167 812.5,572.5 Z"/></g>
<g><path style="opacity:1" fill="#c5c5c5" d="M 317.5,787.5 C 354.435,785.609 369.602,802.942 363,839.5C 360.102,849.064 354.269,856.23 345.5,861C 350.167,866.333 354.833,871.667 359.5,877C 352.833,877.667 346.167,877.667 339.5,877C 335.833,872.667 332.167,868.333 328.5,864C 298.009,862.152 285.175,845.985 290,815.5C 293.348,800.32 302.514,790.987 317.5,787.5 Z M 326.5,800.5 C 340.007,803.116 346.007,811.45 344.5,825.5C 345.986,839.254 340.152,847.587 327,850.5C 318.755,849.715 313.422,845.382 311,837.5C 308.276,827.044 309.276,817.044 314,807.5C 317.193,803.159 321.36,800.826 326.5,800.5 Z"/></g>
<g><path style="opacity:1" fill="#c7c7c7" d="M 378.5,789.5 C 391.837,789.333 405.171,789.5 418.5,790C 430.054,791.387 435.721,797.887 435.5,809.5C 435.671,818.83 431.337,824.996 422.5,828C 426.924,830.088 430.424,833.255 433,837.5C 436.737,845.543 440.57,853.543 444.5,861.5C 437.5,862.833 430.5,862.833 423.5,861.5C 419.755,853.676 415.755,846.009 411.5,838.5C 407.387,835.537 402.72,834.204 397.5,834.5C 397.5,843.833 397.5,853.167 397.5,862.5C 391.167,862.5 384.833,862.5 378.5,862.5C 378.5,838.167 378.5,813.833 378.5,789.5 Z M 397.5,802.5 C 403.028,802.206 408.361,803.039 413.5,805C 416.167,809.667 416.167,814.333 413.5,819C 408.361,820.961 403.028,821.794 397.5,821.5C 397.5,815.167 397.5,808.833 397.5,802.5 Z"/></g>
<g><path style="opacity:1" fill="#cacaca" d="M 487.5,789.5 C 493.833,789.5 500.167,789.5 506.5,789.5C 506.5,809.167 506.5,828.833 506.5,848.5C 517.5,848.5 528.5,848.5 539.5,848.5C 539.5,853.167 539.5,857.833 539.5,862.5C 522.167,862.5 504.833,862.5 487.5,862.5C 487.5,838.167 487.5,813.833 487.5,789.5 Z"/></g>
<g><path style="opacity:1" fill="#cacaca" d="M 551.5,789.5 C 557.833,789.5 564.167,789.5 570.5,789.5C 570.5,813.833 570.5,838.167 570.5,862.5C 564.167,862.5 557.833,862.5 551.5,862.5C 551.5,838.167 551.5,813.833 551.5,789.5 Z"/></g>
<g><path style="opacity:1" fill="#c7c7c7" d="M 634.5,836.5 C 634.783,837.289 635.283,837.956 636,838.5C 636.5,822.17 636.667,805.837 636.5,789.5C 642.5,789.5 648.5,789.5 654.5,789.5C 654.5,813.833 654.5,838.167 654.5,862.5C 646.913,862.814 639.413,862.481 632,861.5C 623.667,845.833 615.333,830.167 607,814.5C 606.5,830.497 606.333,846.497 606.5,862.5C 600.5,862.5 594.5,862.5 588.5,862.5C 588.5,838.167 588.5,813.833 588.5,789.5C 596.087,789.186 603.587,789.519 611,790.5C 619.115,805.73 626.948,821.064 634.5,836.5 Z"/></g>
<g><path style="opacity:1" fill="#7f7f7f" d="M 636.5,789.5 C 636.667,805.837 636.5,822.17 636,838.5C 635.283,837.956 634.783,837.289 634.5,836.5C 635.167,820.833 635.833,805.167 636.5,789.5 Z"/></g>
<g><path style="opacity:1" fill="#c7c7c7" d="M 672.5,789.5 C 678.833,789.5 685.167,789.5 691.5,789.5C 691.334,797.84 691.5,806.173 692,814.5C 700.803,806.698 709.303,798.531 717.5,790C 725.167,789.333 732.833,789.333 740.5,790C 728.986,801.347 717.652,812.847 706.5,824.5C 719.292,836.792 731.959,849.292 744.5,862C 736.167,862.667 727.833,862.667 719.5,862C 710.333,852.833 701.167,843.667 692,834.5C 691.5,843.827 691.334,853.161 691.5,862.5C 685.167,862.5 678.833,862.5 672.5,862.5C 672.5,838.167 672.5,813.833 672.5,789.5 Z"/></g>
<g><path style="opacity:1" fill="#cacaca" d="M 449.5,830.5 C 458.167,830.5 466.833,830.5 475.5,830.5C 475.5,834.167 475.5,837.833 475.5,841.5C 466.833,841.5 458.167,841.5 449.5,841.5C 449.5,837.833 449.5,834.167 449.5,830.5 Z"/></g>
</svg>
