<?xml version="1.0" encoding="UTF-8"?>
<!DOCTYPE svg PUBLIC "-//W3C//DTD SVG 1.1//EN" "http://www.w3.org/Graphics/SVG/1.1/DTD/svg11.dtd">
<svg xmlns="http://www.w3.org/2000/svg" version="1.1" width="710px" height="659px" style="shape-rendering:geometricPrecision; text-rendering:geometricPrecision; image-rendering:optimizeQuality; fill-rule:evenodd; clip-rule:evenodd" xmlns:xlink="http://www.w3.org/1999/xlink">
<g><path style="opacity:1" fill="#030303" d="M 21.5,-0.5 C 161.833,-0.5 302.167,-0.5 442.5,-0.5C 442.833,0.833333 443.167,0.833333 443.5,-0.5C 445.167,-0.5 446.833,-0.5 448.5,-0.5C 448.833,0.833333 449.167,0.833333 449.5,-0.5C 449.833,-0.5 450.167,-0.5 450.5,-0.5C 450.833,0.833333 451.167,0.833333 451.5,-0.5C 452.5,-0.5 453.5,-0.5 454.5,-0.5C 454.833,0.833333 455.167,0.833333 455.5,-0.5C 457.833,-0.5 460.167,-0.5 462.5,-0.5C 462.833,0.833333 463.167,0.833333 463.5,-0.5C 465.5,-0.5 467.5,-0.5 469.5,-0.5C 471.5,0.833333 473.5,0.833333 475.5,-0.5C 476.167,-0.5 476.833,-0.5 477.5,-0.5C 497.167,0.833333 516.833,0.833333 536.5,-0.5C 537.167,-0.5 537.833,-0.5 538.5,-0.5C 539.167,0.833333 539.833,0.833333 540.5,-0.5C 540.833,-0.5 541.167,-0.5 541.5,-0.5C 541.833,0.833333 542.167,0.833333 542.5,-0.5C 543.167,-0.5 543.833,-0.5 544.5,-0.5C 545.167,0.833333 545.833,0.833333 546.5,-0.5C 546.833,-0.5 547.167,-0.5 547.5,-0.5C 548.833,0.833333 550.167,0.833333 551.5,-0.5C 551.833,-0.5 552.167,-0.5 552.5,-0.5C 552.833,0.833333 553.167,0.833333 553.5,-0.5C 554.167,-0.5 554.833,-0.5 555.5,-0.5C 556.167,0.833333 556.833,0.833333 557.5,-0.5C 558.5,-0.5 559.5,-0.5 560.5,-0.5C 560.833,0.833333 561.167,0.833333 561.5,-0.5C 603.833,-0.5 646.167,-0.5 688.5,-0.5C 700.242,3.90384 707.242,12.2372 709.5,24.5C 709.5,24.8333 709.5,25.1667 709.5,25.5C 708.167,26.5 708.167,27.5 709.5,28.5C 709.5,28.8333 709.5,29.1667 709.5,29.5C 708.167,29.8333 708.167,30.1667 709.5,30.5C 709.5,31.1667 709.5,31.8333 709.5,32.5C 708.167,32.8333 708.167,33.1667 709.5,33.5C 709.5,34.1667 709.5,34.8333 709.5,35.5C 708.167,35.8333 708.167,36.1667 709.5,36.5C 709.5,37.1667 709.5,37.8333 709.5,38.5C 708.167,38.8333 708.167,39.1667 709.5,39.5C 709.5,39.8333 709.5,40.1667 709.5,40.5C 708.167,41.1667 708.167,41.8333 709.5,42.5C 709.5,43.1667 709.5,43.8333 709.5,44.5C 708.167,44.8333 708.167,45.1667 709.5,45.5C 709.5,47.5 709.5,49.5 709.5,51.5C 708.167,51.8333 708.167,52.1667 709.5,52.5C 709.5,52.8333 709.5,53.1667 709.5,53.5C 708.167,53.8333 708.167,54.1667 709.5,54.5C 709.5,54.8333 709.5,55.1667 709.5,55.5C 708.167,55.8333 708.167,56.1667 709.5,56.5C 709.5,56.8333 709.5,57.1667 709.5,57.5C 708.167,57.8333 708.167,58.1667 709.5,58.5C 709.5,59.1667 709.5,59.8333 709.5,60.5C 708.167,60.8333 708.167,61.1667 709.5,61.5C 709.5,61.8333 709.5,62.1667 709.5,62.5C 708.167,62.8333 708.167,63.1667 709.5,63.5C 709.5,63.8333 709.5,64.1667 709.5,64.5C 708.167,64.8333 708.167,65.1667 709.5,65.5C 709.5,66.1667 709.5,66.8333 709.5,67.5C 708.167,68.1667 708.167,68.8333 709.5,69.5C 709.5,69.8333 709.5,70.1667 709.5,70.5C 708.167,70.8333 708.167,71.1667 709.5,71.5C 709.5,71.8333 709.5,72.1667 709.5,72.5C 708.167,74.5 708.167,76.5 709.5,78.5C 709.5,78.8333 709.5,79.1667 709.5,79.5C 708.831,170.039 708.164,260.706 707.5,351.5C 707.789,446.77 708.123,541.437 708.5,635.5C 706.628,646.542 700.295,653.709 689.5,657C 618.999,657.167 548.665,657.667 478.5,658.5C 478.167,658.5 477.833,658.5 477.5,658.5C 476.833,657.167 476.167,657.167 475.5,658.5C 475.167,658.5 474.833,658.5 474.5,658.5C 473.833,657.167 473.167,657.167 472.5,658.5C 472.167,658.5 471.833,658.5 471.5,658.5C 470.5,657.167 469.5,657.167 468.5,658.5C 468.167,658.5 467.833,658.5 467.5,658.5C 467.167,657.167 466.833,657.167 466.5,658.5C 466.167,658.5 465.833,658.5 465.5,658.5C 464.833,657.167 464.167,657.167 463.5,658.5C 462.833,658.5 462.167,658.5 461.5,658.5C 461.167,657.167 460.833,657.167 460.5,658.5C 460.167,658.5 459.833,658.5 459.5,658.5C 457.833,657.167 456.167,657.167 454.5,658.5C 453.5,658.5 452.5,658.5 451.5,658.5C 450.833,657.167 450.167,657.167 449.5,658.5C 447.833,658.5 446.167,658.5 444.5,658.5C 443.833,657.167 443.167,657.167 442.5,658.5C 441.167,658.5 439.833,658.5 438.5,658.5C 438.167,657.167 437.833,657.167 437.5,658.5C 404.167,658.5 370.833,658.5 337.5,658.5C 337.167,657.167 336.833,657.167 336.5,658.5C 335.5,658.5 334.5,658.5 333.5,658.5C 332.833,657.167 332.167,657.167 331.5,658.5C 331.167,658.5 330.833,658.5 330.5,658.5C 328.5,657.167 326.5,657.167 324.5,658.5C 323.5,658.5 322.5,658.5 321.5,658.5C 315.5,657.167 309.5,657.167 303.5,658.5C 303.167,658.5 302.833,658.5 302.5,658.5C 300.833,657.167 299.167,657.167 297.5,658.5C 297.167,658.5 296.833,658.5 296.5,658.5C 294.167,657.167 291.833,657.167 289.5,658.5C 289.167,658.5 288.833,658.5 288.5,658.5C 286.833,657.167 285.167,657.167 283.5,658.5C 282.833,658.5 282.167,658.5 281.5,658.5C 280.167,657.167 278.833,657.167 277.5,658.5C 277.167,658.5 276.833,658.5 276.5,658.5C 271.833,657.167 267.167,657.167 262.5,658.5C 262.167,658.5 261.833,658.5 261.5,658.5C 260.167,657.167 258.833,657.167 257.5,658.5C 257.167,658.5 256.833,658.5 256.5,658.5C 256.167,657.167 255.833,657.167 255.5,658.5C 255.167,658.5 254.833,658.5 254.5,658.5C 252.5,657.167 250.5,657.167 248.5,658.5C 248.167,658.5 247.833,658.5 247.5,658.5C 245.5,657.167 243.5,657.167 241.5,658.5C 241.167,658.5 240.833,658.5 240.5,658.5C 231.167,657.167 221.833,657.167 212.5,658.5C 212.167,658.5 211.833,658.5 211.5,658.5C 199.833,657.167 188.167,657.167 176.5,658.5C 176.167,658.5 175.833,658.5 175.5,658.5C 173.833,657.167 172.167,657.167 170.5,658.5C 170.167,658.5 169.833,658.5 169.5,658.5C 168.833,657.167 168.167,657.167 167.5,658.5C 166.5,658.5 165.5,658.5 164.5,658.5C 163.833,657.167 163.167,657.167 162.5,658.5C 160.833,658.5 159.167,658.5 157.5,658.5C 157.167,657.167 156.833,657.167 156.5,658.5C 155.5,658.5 154.5,658.5 153.5,658.5C 153.167,657.167 152.833,657.167 152.5,658.5C 150.167,658.5 147.833,658.5 145.5,658.5C 145.167,657.167 144.833,657.167 144.5,658.5C 103.167,658.5 61.8333,658.5 20.5,658.5C 10.5,654.5 3.5,647.5 -0.5,637.5C -0.5,636.833 -0.5,636.167 -0.5,635.5C 0.833333,635.167 0.833333,634.833 -0.5,634.5C -0.5,623.5 -0.5,612.5 -0.5,601.5C 0.833333,601.167 0.833333,600.833 -0.5,600.5C -0.5,592.167 -0.5,583.833 -0.5,575.5C 0.833333,574.833 0.833333,574.167 -0.5,573.5C -0.5,571.5 -0.5,569.5 -0.5,567.5C 0.833333,566.167 0.833333,564.833 -0.5,563.5C -0.5,561.5 -0.5,559.5 -0.5,557.5C 0.833333,556.833 0.833333,556.167 -0.5,555.5C -0.5,551.833 -0.5,548.167 -0.5,544.5C 0.833333,544.167 0.833333,543.833 -0.5,543.5C -0.5,532.167 -0.5,520.833 -0.5,509.5C 0.833333,509.167 0.833333,508.833 -0.5,508.5C -0.5,507.833 -0.5,507.167 -0.5,506.5C 0.833333,506.167 0.833333,505.833 -0.5,505.5C -0.5,504.5 -0.5,503.5 -0.5,502.5C 0.833333,502.167 0.833333,501.833 -0.5,501.5C -0.5,500.833 -0.5,500.167 -0.5,499.5C 0.833333,498.833 0.833333,498.167 -0.5,497.5C -0.5,494.167 -0.5,490.833 -0.5,487.5C 0.833333,487.167 0.833333,486.833 -0.5,486.5C -0.5,484.833 -0.5,483.167 -0.5,481.5C 0.833333,480.167 0.833333,478.833 -0.5,477.5C -0.5,477.167 -0.5,476.833 -0.5,476.5C 0.33315,324.001 0.83315,171.334 1,18.5C 4.25976,8.06548 11.0931,1.73214 21.5,-0.5 Z"/></g>
<g><path style="opacity:1" fill="#fcfdfd" d="M 247.5,42.5 C 247.5,115.167 247.5,187.833 247.5,260.5C 179.833,260.5 112.167,260.5 44.5,260.5C 43.501,204.669 43.1677,148.669 43.5,92.5C 43.5,75.8333 43.5,59.1667 43.5,42.5C 111.5,42.5 179.5,42.5 247.5,42.5 Z"/></g>
<g><path style="opacity:1" fill="#fdfdfd" d="M 290.5,44.5 C 290.5,44.1667 290.5,43.8333 290.5,43.5C 304.167,43.5 317.833,43.5 331.5,43.5C 331.5,145.833 331.5,248.167 331.5,350.5C 235.833,350.5 140.167,350.5 44.5,350.5C 44.7373,349.209 44.404,348.209 43.5,347.5C 43.5,333.167 43.5,318.833 43.5,304.5C 115.833,304.5 188.167,304.5 260.5,304.5C 270.833,304.5 281.167,304.5 291.5,304.5C 291.833,217.665 291.499,130.998 290.5,44.5 Z"/></g>
<g><path style="opacity:1" fill="#949393" d="M 666.5,303.5 C 666.5,303.833 666.5,304.167 666.5,304.5C 583.167,304.5 499.833,304.5 416.5,304.5C 416.5,217.5 416.5,130.5 416.5,43.5C 404.167,43.5 391.833,43.5 379.5,43.5C 378.667,93.665 378.167,143.998 378,194.5C 377.667,200.833 377.333,207.167 377,213.5C 376.427,215.641 375.594,217.641 374.5,219.5C 373.67,210.342 373.17,201.009 373,191.5C 372.5,141.834 372.333,92.1678 372.5,42.5C 387.5,42.5 402.5,42.5 417.5,42.5C 417.5,129.5 417.5,216.5 417.5,303.5C 500.5,303.5 583.5,303.5 666.5,303.5 Z"/></g>
<g><path style="opacity:1" fill="#fdfdfd" d="M 379.5,43.5 C 391.833,43.5 404.167,43.5 416.5,43.5C 416.5,130.5 416.5,217.5 416.5,304.5C 499.833,304.5 583.167,304.5 666.5,304.5C 666.5,319.833 666.5,335.167 666.5,350.5C 583.5,350.5 500.5,350.5 417.5,350.5C 416.501,438.332 416.167,526.332 416.5,614.5C 403.167,614.5 389.833,614.5 376.5,614.5C 376.832,572.33 376.499,530.33 375.5,488.5C 375.5,475.833 375.5,463.167 375.5,450.5C 375.5,392.167 375.5,333.833 375.5,275.5C 377.384,275.712 378.717,276.712 379.5,278.5C 380.212,259.994 380.878,241.494 381.5,223C 379.9,219.057 379.234,214.891 379.5,210.5C 379.5,154.833 379.5,99.1667 379.5,43.5 Z"/></g>
<g><path style="opacity:1" fill="#fdfdfd" d="M 572.5,42.5 C 603.833,42.5 635.167,42.5 666.5,42.5C 666.5,79.5 666.5,116.5 666.5,153.5C 666.5,189.167 666.5,224.833 666.5,260.5C 597.833,260.5 529.167,260.5 460.5,260.5C 460.5,188.167 460.5,115.833 460.5,43.5C 498.004,43.8318 535.337,43.4985 572.5,42.5 Z"/></g>
<g><path style="opacity:1" fill="#575758" d="M 247.5,42.5 C 179.5,42.5 111.5,42.5 43.5,42.5C 43.5,59.1667 43.5,75.8333 43.5,92.5C 42.5034,75.6749 42.1701,58.6749 42.5,41.5C 111.002,41.1675 179.335,41.5008 247.5,42.5 Z"/></g>
<g><path style="opacity:1" fill="#9a9a9a" d="M 572.5,42.5 C 535.337,43.4985 498.004,43.8318 460.5,43.5C 460.5,115.833 460.5,188.167 460.5,260.5C 459.501,188.002 459.167,115.335 459.5,42.5C 497.167,42.5 534.833,42.5 572.5,42.5 Z"/></g>
<g><path style="opacity:1" fill="#020202" d="M 87.5,86.5 C 126.167,86.5 164.833,86.5 203.5,86.5C 203.5,127.833 203.5,169.167 203.5,210.5C 165.167,210.5 126.833,210.5 88.5,210.5C 88.8307,188.327 88.4974,166.327 87.5,144.5C 87.5,125.167 87.5,105.833 87.5,86.5 Z"/></g>
<g><path style="opacity:1" fill="#b7b6b6" d="M 290.5,44.5 C 291.499,130.998 291.833,217.665 291.5,304.5C 281.167,304.5 270.833,304.5 260.5,304.5C 270.319,303.506 280.319,303.173 290.5,303.5C 290.5,217.167 290.5,130.833 290.5,44.5 Z"/></g>
<g><path style="opacity:1" fill="#a3a3a4" d="M 290.5,43.5 C 304.323,42.5042 318.323,42.1709 332.5,42.5C 332.833,145.335 332.499,248.001 331.5,350.5C 331.5,248.167 331.5,145.833 331.5,43.5C 317.833,43.5 304.167,43.5 290.5,43.5 Z"/></g>
<g><path style="opacity:1" fill="#535353" d="M 503.5,87.5 C 543.167,87.5 582.833,87.5 622.5,87.5C 622.5,128.5 622.5,169.5 622.5,210.5C 582.833,210.5 543.167,210.5 503.5,210.5C 503.5,169.5 503.5,128.5 503.5,87.5 Z"/></g>
<g><path style="opacity:1" fill="#020202" d="M 504.5,88.5 C 543.5,88.5 582.5,88.5 621.5,88.5C 621.5,128.833 621.5,169.167 621.5,209.5C 582.5,209.5 543.5,209.5 504.5,209.5C 504.5,169.167 504.5,128.833 504.5,88.5 Z"/></g>
<g><path style="opacity:1" fill="#676667" d="M 87.5,86.5 C 126.33,85.5015 165.33,85.1681 204.5,85.5C 204.5,127.167 204.5,168.833 204.5,210.5C 204.167,210.5 203.833,210.5 203.5,210.5C 203.5,169.167 203.5,127.833 203.5,86.5C 164.833,86.5 126.167,86.5 87.5,86.5 Z"/></g>
<g><path style="opacity:1" fill="#929292" d="M 87.5,144.5 C 88.4974,166.327 88.8307,188.327 88.5,210.5C 126.833,210.5 165.167,210.5 203.5,210.5C 203.833,210.5 204.167,210.5 204.5,210.5C 165.67,211.499 126.67,211.832 87.5,211.5C 87.5,189.167 87.5,166.833 87.5,144.5 Z"/></g>
<g><path style="opacity:1" fill="#a5a6a6" d="M 379.5,43.5 C 379.5,99.1667 379.5,154.833 379.5,210.5C 378.172,218.902 378.172,227.402 379.5,236C 375.853,248.84 374.52,262.007 375.5,275.5C 375.5,333.833 375.5,392.167 375.5,450.5C 374.501,373.668 374.167,296.668 374.5,219.5C 375.594,217.641 376.427,215.641 377,213.5C 377.333,207.167 377.667,200.833 378,194.5C 378.167,143.998 378.667,93.665 379.5,43.5 Z"/></g>
<g><path style="opacity:1" fill="#e4e5e6" d="M 379.5,210.5 C 379.234,214.891 379.9,219.057 381.5,223C 380.878,241.494 380.212,259.994 379.5,278.5C 378.717,276.712 377.384,275.712 375.5,275.5C 374.52,262.007 375.853,248.84 379.5,236C 378.172,227.402 378.172,218.902 379.5,210.5 Z"/></g>
<g><path style="opacity:1" fill="#7d7d7d" d="M 247.5,42.5 C 248.499,115.331 248.833,188.331 248.5,261.5C 180.331,261.833 112.331,261.499 44.5,260.5C 112.167,260.5 179.833,260.5 247.5,260.5C 247.5,187.833 247.5,115.167 247.5,42.5 Z"/></g>
<g><path style="opacity:1" fill="#888888" d="M 666.5,153.5 C 667.498,189.329 667.832,225.329 667.5,261.5C 598.331,261.833 529.331,261.499 460.5,260.5C 529.167,260.5 597.833,260.5 666.5,260.5C 666.5,224.833 666.5,189.167 666.5,153.5 Z"/></g>
<g><path style="opacity:1" fill="#959695" d="M 43.5,347.5 C 44.404,348.209 44.7373,349.209 44.5,350.5C 140.167,350.5 235.833,350.5 331.5,350.5C 235.668,351.499 139.668,351.833 43.5,351.5C 43.5,350.167 43.5,348.833 43.5,347.5 Z"/></g>
<g><path style="opacity:1" fill="#6e6e6e" d="M 666.5,303.5 C 667.496,319.325 667.83,335.325 667.5,351.5C 584.167,351.5 500.833,351.5 417.5,351.5C 417.5,351.167 417.5,350.833 417.5,350.5C 500.5,350.5 583.5,350.5 666.5,350.5C 666.5,335.167 666.5,319.833 666.5,304.5C 666.5,304.167 666.5,303.833 666.5,303.5 Z"/></g>
<g><path style="opacity:1" fill="#fdfdfd" d="M 43.5,395.5 C 111.5,395.5 179.5,395.5 247.5,395.5C 247.5,468.5 247.5,541.5 247.5,614.5C 179.833,614.5 112.167,614.5 44.5,614.5C 44.8323,558.331 44.499,502.331 43.5,446.5C 43.5,429.5 43.5,412.5 43.5,395.5 Z"/></g>
<g><path style="opacity:1" fill="#fdfdfd" d="M 331.5,395.5 C 331.5,468.5 331.5,541.5 331.5,614.5C 318.167,614.5 304.833,614.5 291.5,614.5C 291.831,583.995 291.498,553.662 290.5,523.5C 290.5,508.167 290.5,492.833 290.5,477.5C 291.498,450.338 291.831,423.005 291.5,395.5C 304.833,395.5 318.167,395.5 331.5,395.5 Z"/></g>
<g><path style="opacity:1" fill="#c1c1c1" d="M 331.5,394.5 C 331.5,394.833 331.5,395.167 331.5,395.5C 318.167,395.5 304.833,395.5 291.5,395.5C 291.831,423.005 291.498,450.338 290.5,477.5C 290.5,449.833 290.5,422.167 290.5,394.5C 304.167,394.5 317.833,394.5 331.5,394.5 Z"/></g>
<g><path style="opacity:1" fill="#8a8a8a" d="M 504.5,394.5 C 504.83,411.009 504.496,427.342 503.5,443.5C 503.5,427.5 503.5,411.5 503.5,395.5C 489.5,395.5 475.5,395.5 461.5,395.5C 461.5,411.5 461.5,427.5 461.5,443.5C 461.167,443.5 460.833,443.5 460.5,443.5C 460.5,427.167 460.5,410.833 460.5,394.5C 475.167,394.5 489.833,394.5 504.5,394.5 Z"/></g>
<g><path style="opacity:1" fill="#fdfdfd" d="M 503.5,443.5 C 489.5,443.5 475.5,443.5 461.5,443.5C 461.5,427.5 461.5,411.5 461.5,395.5C 475.5,395.5 489.5,395.5 503.5,395.5C 503.5,411.5 503.5,427.5 503.5,443.5 Z"/></g>
<g><path style="opacity:1" fill="#040304" d="M 203.5,443.5 C 203.5,485.833 203.5,528.167 203.5,570.5C 164.833,570.5 126.167,570.5 87.5,570.5C 87.5,528.167 87.5,485.833 87.5,443.5C 126.167,443.5 164.833,443.5 203.5,443.5 Z"/></g>
<g><path style="opacity:1" fill="#333233" d="M 667.5,477.5 C 667.167,477.5 666.833,477.5 666.5,477.5C 655.422,488.077 644.422,498.91 633.5,510C 630.29,512.717 626.956,515.217 623.5,517.5C 623.5,493.5 623.5,469.5 623.5,445.5C 583.5,445.5 543.5,445.5 503.5,445.5C 503.168,486.337 503.501,527.003 504.5,567.5C 525.833,568.167 547.167,568.833 568.5,569.5C 553.167,584.5 537.833,599.5 522.5,614.5C 522.5,614.833 522.5,615.167 522.5,615.5C 501.5,615.5 480.5,615.5 459.5,615.5C 459.417,558.164 459.751,500.83 460.5,443.5C 460.833,443.5 461.167,443.5 461.5,443.5C 475.5,443.5 489.5,443.5 503.5,443.5C 504.496,427.342 504.83,411.009 504.5,394.5C 558.664,393.501 612.997,393.168 667.5,393.5C 667.5,421.5 667.5,449.5 667.5,477.5 Z"/></g>
<g><path style="opacity:1" fill="#36fbd7" d="M 623.5,517.5 C 626.956,515.217 630.29,512.717 633.5,510C 644.422,498.91 655.422,488.077 666.5,477.5C 666.5,523.167 666.5,568.833 666.5,614.5C 618.5,614.5 570.5,614.5 522.5,614.5C 537.833,599.5 553.167,584.5 568.5,569.5C 569.043,569.44 569.376,569.107 569.5,568.5C 547.844,567.5 526.177,567.167 504.5,567.5C 504.5,527.167 504.5,486.833 504.5,446.5C 543.833,446.5 583.167,446.5 622.5,446.5C 622.167,470.908 622.501,494.575 623.5,517.5 Z"/></g>
<g><path style="opacity:1" fill="#369887" d="M 623.5,517.5 C 622.501,494.575 622.167,470.908 622.5,446.5C 583.167,446.5 543.833,446.5 504.5,446.5C 504.5,486.833 504.5,527.167 504.5,567.5C 503.501,527.003 503.168,486.337 503.5,445.5C 543.5,445.5 583.5,445.5 623.5,445.5C 623.5,469.5 623.5,493.5 623.5,517.5 Z"/></g>
<g><path style="opacity:1" fill="#a3a4a4" d="M 417.5,350.5 C 417.5,350.833 417.5,351.167 417.5,351.5C 417.5,439.5 417.5,527.5 417.5,615.5C 403.5,615.5 389.5,615.5 375.5,615.5C 375.5,573.167 375.5,530.833 375.5,488.5C 376.499,530.33 376.832,572.33 376.5,614.5C 389.833,614.5 403.167,614.5 416.5,614.5C 416.167,526.332 416.501,438.332 417.5,350.5 Z"/></g>
<g><path style="opacity:1" fill="#368678" d="M 504.5,567.5 C 526.177,567.167 547.844,567.5 569.5,568.5C 569.376,569.107 569.043,569.44 568.5,569.5C 547.167,568.833 525.833,568.167 504.5,567.5 Z"/></g>
<g><path style="opacity:1" fill="#a3a3a3" d="M 203.5,443.5 C 204.499,485.997 204.832,528.663 204.5,571.5C 165.33,571.832 126.33,571.499 87.5,570.5C 126.167,570.5 164.833,570.5 203.5,570.5C 203.5,528.167 203.5,485.833 203.5,443.5 Z"/></g>
<g><path style="opacity:1" fill="#a3a3a3" d="M 331.5,394.5 C 332.499,467.998 332.833,541.665 332.5,615.5C 318.5,615.5 304.5,615.5 290.5,615.5C 290.5,584.833 290.5,554.167 290.5,523.5C 291.498,553.662 291.831,583.995 291.5,614.5C 304.833,614.5 318.167,614.5 331.5,614.5C 331.5,541.5 331.5,468.5 331.5,395.5C 331.5,395.167 331.5,394.833 331.5,394.5 Z"/></g>
<g><path style="opacity:1" fill="#acacac" d="M 43.5,395.5 C 111.665,394.501 179.998,394.167 248.5,394.5C 248.5,468.167 248.5,541.833 248.5,615.5C 180.167,615.5 111.833,615.5 43.5,615.5C 43.5,559.167 43.5,502.833 43.5,446.5C 44.499,502.331 44.8323,558.331 44.5,614.5C 112.167,614.5 179.833,614.5 247.5,614.5C 247.5,541.5 247.5,468.5 247.5,395.5C 179.5,395.5 111.5,395.5 43.5,395.5 Z"/></g>
<g><path style="opacity:1" fill="#228a76" d="M 666.5,477.5 C 666.833,477.5 667.167,477.5 667.5,477.5C 667.5,523.5 667.5,569.5 667.5,615.5C 619.167,615.5 570.833,615.5 522.5,615.5C 522.5,615.167 522.5,614.833 522.5,614.5C 570.5,614.5 618.5,614.5 666.5,614.5C 666.5,568.833 666.5,523.167 666.5,477.5 Z"/></g>
</svg>
